<svg width="206" height="52" viewBox="0 0 206 52" fill="none" xmlns="http://www.w3.org/2000/svg">
<rect width="206" height="52" fill="black"/>
<path d="M200.278 40.4062C194.778 34.9062 158.574 37.9603 153.778 46.4062L141.278 40.4062C141.278 40.4062 134.312 38.9136 123.358 46.3515C125.939 47.9529 115.692 51.578 123.278 46.4062C123.304 46.3879 123.331 46.3697 123.358 46.3515C122.196 45.6306 118.435 45.3197 109.278 46.4062C79.7775 49.9062 101.278 46.4062 105.778 40.4062C110.278 34.4062 80.2775 41.9063 112.278 34.9063C144.278 27.9062 123.278 34.9063 123.278 34.9063L141.278 32.4063H147.778C147.778 32.4063 157.778 36.4063 163.778 32.4063C169.778 28.4062 173.278 24.9062 173.278 24.9062C173.278 24.9062 188.278 14.4062 188.778 21.4063C189.278 28.4063 192.778 24.9062 200.278 21.4063C207.778 17.9063 205.778 45.9062 200.278 40.4062Z" fill="#B11578"/>
<g filter="url(#filter0_d_0_1)">
<path d="M16.8125 43H4.01989V1.54545H17.3793C21.4006 1.54545 24.8416 2.37535 27.7024 4.03516C30.5632 5.68146 32.756 8.04971 34.2809 11.1399C35.8058 14.2166 36.5682 17.9006 36.5682 22.1918C36.5682 26.5099 35.799 30.2276 34.2607 33.3448C32.7223 36.4485 30.4822 38.837 27.5405 40.5103C24.5987 42.1701 21.0227 43 16.8125 43ZM9.03977 38.5469H16.4886C19.9162 38.5469 22.7567 37.8857 25.0103 36.5632C27.2638 35.2408 28.9439 33.3583 30.0504 30.9158C31.157 28.4734 31.7102 25.5653 31.7102 22.1918C31.7102 18.8452 31.1637 15.9641 30.0707 13.5486C28.9776 11.1197 27.3448 9.25746 25.1722 7.962C22.9996 6.65305 20.294 5.99858 17.0554 5.99858H9.03977V38.5469ZM44.3409 43V11.9091H49.1179V43H44.3409ZM46.7699 6.72727C45.8388 6.72727 45.0359 6.41016 44.3612 5.77592C43.6999 5.14169 43.3693 4.37926 43.3693 3.48864C43.3693 2.59801 43.6999 1.83558 44.3612 1.20135C45.0359 0.567116 45.8388 0.25 46.7699 0.25C47.701 0.25 48.4972 0.567116 49.1584 1.20135C49.8331 1.83558 50.1705 2.59801 50.1705 3.48864C50.1705 4.37926 49.8331 5.14169 49.1584 5.77592C48.4972 6.41016 47.701 6.72727 46.7699 6.72727ZM91.3872 1.54545V43H86.5292L63.9397 10.4517H63.5349V43H58.515V1.54545H63.373L86.0434 34.1747H86.4482V1.54545H91.3872ZM113.82 43.6477C110.824 43.6477 108.24 42.9865 106.067 41.6641C103.908 40.3281 102.242 38.4659 101.068 36.0774C99.9071 33.6754 99.3269 30.8821 99.3269 27.6974C99.3269 24.5128 99.9071 21.706 101.068 19.277C102.242 16.8345 103.874 14.9318 105.966 13.5689C108.071 12.1925 110.527 11.5043 113.334 11.5043C114.953 11.5043 116.552 11.7741 118.131 12.3139C119.71 12.8537 121.147 13.7308 122.443 14.9453C123.738 16.1463 124.77 17.7386 125.54 19.7223C126.309 21.706 126.693 24.1484 126.693 27.0497V29.0739H102.727V24.9446H121.835C121.835 23.1903 121.485 21.625 120.783 20.2486C120.095 18.8722 119.11 17.7859 117.828 16.9897C116.559 16.1935 115.061 15.7955 113.334 15.7955C111.431 15.7955 109.785 16.2678 108.395 17.2124C107.019 18.1435 105.959 19.358 105.217 20.8558C104.475 22.3537 104.104 23.9595 104.104 25.6733V28.4261C104.104 30.7741 104.509 32.7646 105.318 34.3974C106.142 36.0167 107.282 37.2514 108.739 38.1016C110.197 38.9382 111.89 39.3565 113.82 39.3565C115.075 39.3565 116.208 39.1811 117.22 38.8303C118.246 38.4659 119.13 37.9261 119.872 37.2109C120.614 36.4822 121.188 35.5781 121.593 34.4986L126.208 35.794C125.722 37.3594 124.905 38.7358 123.758 39.9233C122.611 41.0973 121.194 42.0149 119.508 42.6761C117.821 43.3239 115.925 43.6477 113.82 43.6477ZM157.278 11.9091C157.035 9.85795 156.05 8.26562 154.323 7.1321C152.596 5.99858 150.477 5.43182 147.967 5.43182C146.132 5.43182 144.526 5.72869 143.15 6.32244C141.787 6.91619 140.721 7.7326 139.952 8.77166C139.196 9.81072 138.818 10.9915 138.818 12.3139C138.818 13.4205 139.081 14.3718 139.607 15.168C140.147 15.9506 140.835 16.6051 141.672 17.1314C142.509 17.6442 143.386 18.0692 144.303 18.4066C145.221 18.7305 146.064 18.9936 146.834 19.196L151.044 20.3295C152.123 20.6129 153.324 21.0043 154.647 21.5036C155.983 22.0028 157.258 22.6843 158.472 23.5479C159.7 24.3981 160.713 25.4911 161.509 26.8271C162.305 28.163 162.703 29.8026 162.703 31.7457C162.703 33.9858 162.116 36.0099 160.942 37.8182C159.781 39.6264 158.081 41.0636 155.841 42.1296C153.615 43.1957 150.909 43.7287 147.724 43.7287C144.756 43.7287 142.185 43.2496 140.012 42.2915C137.853 41.3335 136.153 39.9975 134.911 38.2837C133.683 36.57 132.988 34.5795 132.827 32.3125H138.008C138.143 33.8778 138.67 35.1733 139.587 36.1989C140.518 37.2109 141.692 37.9666 143.109 38.4659C144.54 38.9517 146.078 39.1946 147.724 39.1946C149.64 39.1946 151.361 38.8842 152.886 38.2635C154.411 37.6293 155.618 36.7521 156.509 35.6321C157.4 34.4986 157.845 33.1761 157.845 31.6648C157.845 30.2884 157.46 29.1683 156.691 28.3047C155.922 27.4411 154.91 26.7393 153.655 26.1996C152.4 25.6598 151.044 25.1875 149.586 24.7827L144.486 23.3253C141.247 22.3942 138.683 21.065 136.794 19.3377C134.905 17.6104 133.96 15.3501 133.96 12.5568C133.96 10.2358 134.588 8.21165 135.843 6.48438C137.111 4.74361 138.811 3.39417 140.943 2.43608C143.089 1.46449 145.484 0.978692 148.129 0.978692C150.801 0.978692 153.176 1.45774 155.254 2.41584C157.332 3.36044 158.979 4.65589 160.193 6.3022C161.421 7.94851 162.069 9.81747 162.136 11.9091H157.278ZM175.086 24.2969V43H170.309V1.54545H175.086V16.767H175.491C176.219 15.1612 177.312 13.886 178.77 12.9414C180.241 11.9833 182.197 11.5043 184.64 11.5043C186.758 11.5043 188.614 11.9293 190.206 12.7795C191.798 13.6161 193.033 14.9048 193.91 16.6456C194.801 18.3729 195.246 20.5724 195.246 23.2443V43H190.469V23.5682C190.469 21.0987 189.828 19.1893 188.546 17.8398C187.278 16.4769 185.517 15.7955 183.263 15.7955C181.698 15.7955 180.294 16.1261 179.053 16.7873C177.825 17.4485 176.853 18.4134 176.138 19.6818C175.437 20.9503 175.086 22.4886 175.086 24.2969Z" fill="#FFFEFE"/>
</g>
<defs>
<filter id="filter0_d_0_1" x="0.019886" y="0.25" width="199.226" height="51.4787" filterUnits="userSpaceOnUse" color-interpolation-filters="sRGB">
<feFlood flood-opacity="0" result="BackgroundImageFix"/>
<feColorMatrix in="SourceAlpha" type="matrix" values="0 0 0 0 0 0 0 0 0 0 0 0 0 0 0 0 0 0 127 0" result="hardAlpha"/>
<feOffset dy="4"/>
<feGaussianBlur stdDeviation="2"/>
<feComposite in2="hardAlpha" operator="out"/>
<feColorMatrix type="matrix" values="0 0 0 0 0 0 0 0 0 0 0 0 0 0 0 0 0 0 0.25 0"/>
<feBlend mode="normal" in2="BackgroundImageFix" result="effect1_dropShadow_0_1"/>
<feBlend mode="normal" in="SourceGraphic" in2="effect1_dropShadow_0_1" result="shape"/>
</filter>
</defs>
</svg>
